<?xml version="1.0" encoding="utf-8"?>
<!-- Generator: Adobe Illustrator 27.5.0, SVG Export Plug-In . SVG Version: 6.00 Build 0)  -->
<svg version="1.1" xmlns="http://www.w3.org/2000/svg" xmlns:xlink="http://www.w3.org/1999/xlink" x="0px" y="0px"
	 viewBox="0 0 500 500" style="enable-background:new 0 0 500 500;" xml:space="preserve">
<g id="Background_Complete">
	<g>
		<g>
			<g>
				<g>
					<g>
						<g>
							<path style="fill:#EBEBEB;" d="M443.92,351.803H263.174c-3.232,0-5.862-2.63-5.862-5.862V82.667
								c0-3.232,2.63-5.862,5.862-5.862H443.92c3.232,0,5.862,2.629,5.862,5.862V345.94
								C449.783,349.173,447.153,351.803,443.92,351.803z M263.174,77.055c-3.095,0-5.612,2.518-5.612,5.612V345.94
								c0,3.095,2.518,5.612,5.612,5.612H443.92c3.095,0,5.612-2.518,5.612-5.612V82.667c0-3.094-2.518-5.612-5.612-5.612H263.174z"
								/>
						</g>
					</g>
				</g>
				<g>
					<g>
						<g>
							<path style="fill:#EBEBEB;" d="M235.493,351.803H54.746c-3.232,0-5.862-2.63-5.862-5.862V82.667
								c0-3.232,2.629-5.862,5.862-5.862h180.747c3.232,0,5.862,2.629,5.862,5.862V345.94
								C241.355,349.173,238.725,351.803,235.493,351.803z M54.746,77.055c-3.094,0-5.612,2.518-5.612,5.612V345.94
								c0,3.095,2.518,5.612,5.612,5.612h180.747c3.095,0,5.612-2.518,5.612-5.612V82.667c0-3.094-2.518-5.612-5.612-5.612H54.746z"
								/>
						</g>
					</g>
				</g>
			</g>
		</g>
		<g>
			<g>
				<g>
					<g>
						<g>
							<g>
								<rect x="297.17" y="210.916" style="fill:#F0F0F0;" width="147.199" height="9.715"/>
							</g>
						</g>
					</g>
					<g>
						<g>
							<g>
								<g>
									<polygon style="fill:#E0E0E0;" points="312.169,220.631 316.105,228.879 325.38,228.879 328.02,220.631 									"/>
								</g>
							</g>
						</g>
						<g>
							<g>
								<g>
									<polygon style="fill:#E0E0E0;" points="429.37,220.631 425.435,228.879 416.16,228.879 413.52,220.631 									"/>
								</g>
							</g>
						</g>
					</g>
				</g>
			</g>
			<g>
				<g>
					<g>
						<g>
							<g>
								<g>
									<g>
										<polygon style="fill:#F0F0F0;" points="394.652,206.887 395.14,208.695 395.243,209.081 395.706,210.916 409.743,210.916 
											410.207,209.081 410.31,208.695 410.798,206.887 410.902,206.502 415.745,188.549 415.849,188.164 416.336,186.356 
											416.44,185.971 416.98,183.97 388.47,183.97 389.01,185.971 389.114,186.356 389.601,188.164 389.705,188.549 
											394.548,206.502 										"/>
									</g>
								</g>
							</g>
						</g>
					</g>
				</g>
				<g>
					<g>
						<g>
							<g>
								<g>
									<path style="fill:#F0F0F0;" d="M404.551,158.557c-0.615,0.149-1.215-0.107-1.548-0.576
										c-0.115-0.16-0.202-0.343-0.243-0.545c-0.024-0.102-0.034-0.207-0.034-0.317c0-0.346,0.12-0.678,0.34-0.943
										c1.954-2.365,11.842-13.803,16.477-9.019C425.145,152.935,409.956,157.242,404.551,158.557z"/>
								</g>
							</g>
						</g>
					</g>
				</g>
				<g>
					<g>
						<g>
							<g>
								<g>
									<path style="fill:#F0F0F0;" d="M402.726,162.778c0,0.11-0.011,0.215-0.034,0.317c-0.045,0.202-0.129,0.385-0.244,0.545
										c-0.335,0.469-0.935,0.725-1.55,0.576c-5.402-1.315-20.591-5.62-14.99-11.399c4.633-4.782,14.521,6.654,16.477,9.019
										C402.606,162.1,402.726,162.435,402.726,162.778z"/>
								</g>
							</g>
						</g>
					</g>
				</g>
				<g>
					<g>
						<g>
							<g>
								<g>
									<path style="fill:#F0F0F0;" d="M403.852,151.182c-0.042,0.343-0.199,0.66-0.448,0.898
										c-0.078,0.073-0.162,0.139-0.251,0.194c-0.175,0.107-0.369,0.173-0.566,0.199c-0.571,0.079-1.168-0.178-1.485-0.725
										c-2.776-4.816-10.132-18.784-2.085-18.716C405.677,133.089,404.216,148.136,403.852,151.182z"/>
								</g>
							</g>
						</g>
					</g>
				</g>
				<g>
					<g>
						<g>
							<g>
								<g>
									<path style="fill:#F0F0F0;" d="M404.551,170.702c-0.615,0.149-1.215-0.107-1.548-0.576
										c-0.115-0.16-0.202-0.343-0.243-0.545c-0.024-0.102-0.034-0.207-0.034-0.317c0-0.343,0.12-0.678,0.34-0.943
										c1.954-2.365,11.842-13.801,16.477-9.019C425.145,165.083,409.956,169.388,404.551,170.702z"/>
								</g>
							</g>
						</g>
					</g>
				</g>
				<g>
					<g>
						<g>
							<g>
								<g>
									<path style="fill:#F0F0F0;" d="M402.726,174.924c0,0.11-0.011,0.215-0.034,0.317c-0.045,0.202-0.129,0.388-0.244,0.548
										c-0.338,0.469-0.935,0.723-1.55,0.573c-5.402-1.312-20.591-5.62-14.99-11.399c4.633-4.782,14.521,6.654,16.477,9.019
										C402.606,174.248,402.726,174.581,402.726,174.924z"/>
								</g>
							</g>
						</g>
					</g>
				</g>
				<g>
					<g>
						<g>
							<g>
								<g>
									<path style="fill:#F0F0F0;" d="M404.551,182.143c-0.615,0.149-1.215-0.107-1.548-0.576
										c-0.115-0.16-0.202-0.343-0.243-0.545c-0.024-0.102-0.034-0.207-0.034-0.317c0-0.346,0.12-0.678,0.34-0.943
										c1.954-2.365,11.842-13.803,16.477-9.019C425.145,176.521,409.956,180.829,404.551,182.143z"/>
								</g>
							</g>
						</g>
					</g>
				</g>
			</g>
			<g>
				<g>
					<g>
						<g>
							<g>
								<path style="fill:#E0E0E0;" d="M344.094,204.154h-0.891v-1.33h33.699c1.117,0,2.13,0.451,2.861,1.185
									c0.731,0.731,1.185,1.742,1.185,2.861c0,2.235-1.811,4.046-4.046,4.046h-33.699v-1.152h0.891V204.154z"/>
							</g>
						</g>
					</g>
				</g>
				<g>
					<g>
						<g>
							<g>
								<path style="fill:#FFFFFF;" d="M343.863,204.154v5.609h30.923c1.51,0,2.732-1.256,2.732-2.803
									c0-0.776-0.306-1.475-0.8-1.985c-0.496-0.507-1.177-0.821-1.932-0.821H343.863z"/>
							</g>
						</g>
					</g>
				</g>
				<g>
					<g>
						<g>
							<g>
								<path style="fill:#F0F0F0;" d="M343.863,205.574v0.858h30.123c0.235,0,0.428-0.193,0.428-0.428v-0.003
									c0-0.235-0.193-0.428-0.428-0.428H343.863z"/>
							</g>
						</g>
					</g>
				</g>
				<g>
					<g>
						<g>
							<g>
								<path style="fill:#F0F0F0;" d="M343.863,207.686v0.858h30.123c0.235,0,0.428-0.193,0.428-0.428v-0.003
									c0-0.235-0.193-0.428-0.428-0.428H343.863z"/>
							</g>
						</g>
					</g>
				</g>
			</g>
			<g>
				<g>
					<g>
						<g>
							<g>
								<path style="fill:#E0E0E0;" d="M305.129,204.154h-0.891v-1.33h33.699c1.116,0,2.13,0.451,2.861,1.185
									c0.731,0.731,1.185,1.742,1.185,2.861c0,2.235-1.811,4.046-4.046,4.046h-33.699v-1.152h0.891V204.154z"/>
							</g>
						</g>
					</g>
				</g>
				<g>
					<g>
						<g>
							<g>
								<path style="fill:#FFFFFF;" d="M304.898,204.154v5.609h30.923c1.51,0,2.732-1.256,2.732-2.803
									c0-0.776-0.306-1.475-0.8-1.985c-0.496-0.507-1.177-0.821-1.932-0.821H304.898z"/>
							</g>
						</g>
					</g>
				</g>
				<g>
					<g>
						<g>
							<g>
								<path style="fill:#F0F0F0;" d="M304.898,205.574v0.858h30.123c0.235,0,0.428-0.193,0.428-0.428v-0.003
									c0-0.235-0.193-0.428-0.428-0.428H304.898z"/>
							</g>
						</g>
					</g>
				</g>
				<g>
					<g>
						<g>
							<g>
								<path style="fill:#F0F0F0;" d="M304.898,207.686v0.858h30.123c0.235,0,0.428-0.193,0.428-0.428v-0.003
									c0-0.235-0.193-0.428-0.428-0.428H304.898z"/>
							</g>
						</g>
					</g>
				</g>
			</g>
			<g>
				<g>
					<g>
						<g>
							<g>
								<path style="fill:#E0E0E0;" d="M344.094,196.151h-0.891v-1.33h33.699c1.116,0,2.13,0.451,2.861,1.185
									c0.731,0.731,1.185,1.742,1.185,2.861c0,2.236-1.811,4.046-4.046,4.046h-33.699v-1.152h0.891V196.151z"/>
							</g>
						</g>
					</g>
				</g>
				<g>
					<g>
						<g>
							<g>
								<path style="fill:#FFFFFF;" d="M343.863,196.151v5.609h30.922c1.51,0,2.732-1.256,2.732-2.803
									c0-0.776-0.306-1.475-0.8-1.985c-0.496-0.507-1.177-0.821-1.932-0.821H343.863z"/>
							</g>
						</g>
					</g>
				</g>
				<g>
					<g>
						<g>
							<g>
								<path style="fill:#F0F0F0;" d="M343.863,197.571v0.858h30.123c0.235,0,0.428-0.193,0.428-0.428v-0.003
									c0-0.235-0.193-0.427-0.428-0.427H343.863z"/>
							</g>
						</g>
					</g>
				</g>
				<g>
					<g>
						<g>
							<g>
								<path style="fill:#F0F0F0;" d="M343.863,199.682v0.858h30.123c0.235,0,0.428-0.193,0.428-0.428v-0.003
									c0-0.235-0.193-0.428-0.428-0.428H343.863z"/>
							</g>
						</g>
					</g>
				</g>
			</g>
			<g>
				<g>
					<g>
						<g>
							<path style="fill:#E0E0E0;" d="M402.999,183.97v-34.938c0-0.301-0.244-0.545-0.545-0.545c-0.301,0-0.544,0.243-0.544,0.545
								v34.938H402.999z"/>
						</g>
					</g>
				</g>
			</g>
		</g>
		<g>
			<g>
				<g>
					<rect x="63.326" y="93.297" style="fill:#E0E0E0;" width="159.915" height="200.241"/>
				</g>
			</g>
			<g>
				<g>
					
						<rect x="47.163" y="117.46" transform="matrix(-1.836970e-16 1 -1 -1.836970e-16 336.7007 50.1343)" style="fill:#F5F5F5;" width="192.241" height="151.915"/>
				</g>
			</g>
			<g>
				<g>
					<g>
						<g>
							<polygon style="fill:#E6E6E6;" points="113.015,165.461 113.015,289.538 67.382,289.538 67.382,165.461 72.536,165.461 
								81.367,150.161 89.265,136.481 89.265,111.244 91.132,111.244 91.132,136.481 99.03,150.161 107.861,165.461 							"/>
						</g>
					</g>
				</g>
				<g>
					<g>
						<g>
							<g>
								<g>
									<g>
										<rect x="72.535" y="173.021" style="fill:#FAFAFA;" width="7.079" height="3.321"/>
									</g>
								</g>
							</g>
							<g>
								<g>
									<g>
										<rect x="86.659" y="173.021" style="fill:#FAFAFA;" width="7.079" height="3.321"/>
									</g>
								</g>
							</g>
							<g>
								<g>
									<g>
										<rect x="100.784" y="173.021" style="fill:#FAFAFA;" width="7.079" height="3.321"/>
									</g>
								</g>
							</g>
						</g>
						<g>
							<g>
								<g>
									<g>
										<rect x="72.535" y="181.238" style="fill:#FAFAFA;" width="7.079" height="3.321"/>
									</g>
								</g>
							</g>
							<g>
								<g>
									<g>
										<rect x="86.659" y="181.238" style="fill:#FAFAFA;" width="7.079" height="3.321"/>
									</g>
								</g>
							</g>
							<g>
								<g>
									<g>
										<rect x="100.784" y="181.238" style="fill:#FAFAFA;" width="7.079" height="3.321"/>
									</g>
								</g>
							</g>
						</g>
						<g>
							<g>
								<g>
									<g>
										<rect x="72.535" y="189.455" style="fill:#FAFAFA;" width="7.079" height="3.321"/>
									</g>
								</g>
							</g>
							<g>
								<g>
									<g>
										<rect x="86.659" y="189.455" style="fill:#FAFAFA;" width="7.079" height="3.321"/>
									</g>
								</g>
							</g>
							<g>
								<g>
									<g>
										<rect x="100.784" y="189.455" style="fill:#FAFAFA;" width="7.079" height="3.321"/>
									</g>
								</g>
							</g>
						</g>
						<g>
							<g>
								<g>
									<g>
										<rect x="72.535" y="197.672" style="fill:#FAFAFA;" width="7.079" height="3.321"/>
									</g>
								</g>
							</g>
							<g>
								<g>
									<g>
										<rect x="86.659" y="197.672" style="fill:#FAFAFA;" width="7.079" height="3.321"/>
									</g>
								</g>
							</g>
							<g>
								<g>
									<g>
										<rect x="100.784" y="197.672" style="fill:#FAFAFA;" width="7.079" height="3.321"/>
									</g>
								</g>
							</g>
						</g>
						<g>
							<g>
								<g>
									<g>
										<rect x="72.535" y="205.889" style="fill:#FAFAFA;" width="7.079" height="3.321"/>
									</g>
								</g>
							</g>
							<g>
								<g>
									<g>
										<rect x="86.659" y="205.889" style="fill:#FAFAFA;" width="7.079" height="3.321"/>
									</g>
								</g>
							</g>
							<g>
								<g>
									<g>
										<rect x="100.784" y="205.889" style="fill:#FAFAFA;" width="7.079" height="3.321"/>
									</g>
								</g>
							</g>
						</g>
						<g>
							<g>
								<g>
									<g>
										<rect x="72.535" y="214.106" style="fill:#FAFAFA;" width="7.079" height="3.321"/>
									</g>
								</g>
							</g>
							<g>
								<g>
									<g>
										<rect x="86.659" y="214.106" style="fill:#FAFAFA;" width="7.079" height="3.321"/>
									</g>
								</g>
							</g>
							<g>
								<g>
									<g>
										<rect x="100.784" y="214.106" style="fill:#FAFAFA;" width="7.079" height="3.321"/>
									</g>
								</g>
							</g>
						</g>
						<g>
							<g>
								<g>
									<g>
										<rect x="72.535" y="222.323" style="fill:#FAFAFA;" width="7.079" height="3.322"/>
									</g>
								</g>
							</g>
							<g>
								<g>
									<g>
										<rect x="86.659" y="222.323" style="fill:#FAFAFA;" width="7.079" height="3.322"/>
									</g>
								</g>
							</g>
							<g>
								<g>
									<g>
										<rect x="100.784" y="222.323" style="fill:#FAFAFA;" width="7.079" height="3.322"/>
									</g>
								</g>
							</g>
						</g>
						<g>
							<g>
								<g>
									<g>
										<rect x="72.535" y="230.54" style="fill:#FAFAFA;" width="7.079" height="3.321"/>
									</g>
								</g>
							</g>
							<g>
								<g>
									<g>
										<rect x="86.659" y="230.54" style="fill:#FAFAFA;" width="7.079" height="3.321"/>
									</g>
								</g>
							</g>
							<g>
								<g>
									<g>
										<rect x="100.784" y="230.54" style="fill:#FAFAFA;" width="7.079" height="3.321"/>
									</g>
								</g>
							</g>
						</g>
						<g>
							<g>
								<g>
									<g>
										<rect x="72.535" y="238.757" style="fill:#FAFAFA;" width="7.079" height="3.321"/>
									</g>
								</g>
							</g>
							<g>
								<g>
									<g>
										<rect x="86.659" y="238.757" style="fill:#FAFAFA;" width="7.079" height="3.321"/>
									</g>
								</g>
							</g>
							<g>
								<g>
									<g>
										<rect x="100.784" y="238.757" style="fill:#FAFAFA;" width="7.079" height="3.321"/>
									</g>
								</g>
							</g>
						</g>
						<g>
							<g>
								<g>
									<g>
										<rect x="72.535" y="246.974" style="fill:#FAFAFA;" width="7.079" height="3.321"/>
									</g>
								</g>
							</g>
							<g>
								<g>
									<g>
										<rect x="86.659" y="246.974" style="fill:#FAFAFA;" width="7.079" height="3.321"/>
									</g>
								</g>
							</g>
							<g>
								<g>
									<g>
										<rect x="100.784" y="246.974" style="fill:#FAFAFA;" width="7.079" height="3.321"/>
									</g>
								</g>
							</g>
						</g>
						<g>
							<g>
								<g>
									<g>
										<rect x="72.535" y="255.191" style="fill:#FAFAFA;" width="7.079" height="3.321"/>
									</g>
								</g>
							</g>
							<g>
								<g>
									<g>
										<rect x="86.659" y="255.191" style="fill:#FAFAFA;" width="7.079" height="3.321"/>
									</g>
								</g>
							</g>
							<g>
								<g>
									<g>
										<rect x="100.784" y="255.191" style="fill:#FAFAFA;" width="7.079" height="3.321"/>
									</g>
								</g>
							</g>
						</g>
						<g>
							<g>
								<g>
									<g>
										<rect x="72.535" y="263.408" style="fill:#FAFAFA;" width="7.079" height="3.321"/>
									</g>
								</g>
							</g>
							<g>
								<g>
									<g>
										<rect x="86.659" y="263.408" style="fill:#FAFAFA;" width="7.079" height="3.321"/>
									</g>
								</g>
							</g>
							<g>
								<g>
									<g>
										<rect x="100.784" y="263.408" style="fill:#FAFAFA;" width="7.079" height="3.321"/>
									</g>
								</g>
							</g>
						</g>
					</g>
				</g>
			</g>
			<g>
				<g>
					<g>
						<g>
							<polygon style="fill:#E6E6E6;" points="167.056,139.71 167.056,289.538 116.002,289.538 116.002,139.71 119.632,139.71 
								119.632,109.587 156.014,126.068 156.014,97.297 157.882,97.297 157.882,126.916 161.778,128.678 161.778,139.71 							"/>
						</g>
					</g>
				</g>
				<g>
					<g>
						<g>
							<g>
								<g>
									<rect x="123.867" y="149.058" style="fill:#FAFAFA;" width="7.079" height="3.321"/>
								</g>
							</g>
						</g>
						<g>
							<g>
								<g>
									<rect x="137.992" y="149.058" style="fill:#FAFAFA;" width="7.079" height="3.321"/>
								</g>
							</g>
						</g>
						<g>
							<g>
								<g>
									<rect x="152.116" y="149.058" style="fill:#FAFAFA;" width="7.079" height="3.321"/>
								</g>
							</g>
						</g>
					</g>
					<g>
						<g>
							<g>
								<g>
									<rect x="123.867" y="157.275" style="fill:#FAFAFA;" width="7.079" height="3.321"/>
								</g>
							</g>
						</g>
						<g>
							<g>
								<g>
									<rect x="137.992" y="157.275" style="fill:#FAFAFA;" width="7.079" height="3.321"/>
								</g>
							</g>
						</g>
						<g>
							<g>
								<g>
									<rect x="152.116" y="157.275" style="fill:#FAFAFA;" width="7.079" height="3.321"/>
								</g>
							</g>
						</g>
					</g>
					<g>
						<g>
							<g>
								<g>
									<rect x="123.867" y="165.492" style="fill:#FAFAFA;" width="7.079" height="3.321"/>
								</g>
							</g>
						</g>
						<g>
							<g>
								<g>
									<rect x="137.992" y="165.492" style="fill:#FAFAFA;" width="7.079" height="3.321"/>
								</g>
							</g>
						</g>
						<g>
							<g>
								<g>
									<rect x="152.116" y="165.492" style="fill:#FAFAFA;" width="7.079" height="3.321"/>
								</g>
							</g>
						</g>
					</g>
					<g>
						<g>
							<g>
								<g>
									<rect x="123.867" y="173.708" style="fill:#FAFAFA;" width="7.079" height="3.321"/>
								</g>
							</g>
						</g>
						<g>
							<g>
								<g>
									<rect x="137.992" y="173.708" style="fill:#FAFAFA;" width="7.079" height="3.321"/>
								</g>
							</g>
						</g>
						<g>
							<g>
								<g>
									<rect x="152.116" y="173.708" style="fill:#FAFAFA;" width="7.079" height="3.321"/>
								</g>
							</g>
						</g>
					</g>
					<g>
						<g>
							<g>
								<g>
									<rect x="123.867" y="181.926" style="fill:#FAFAFA;" width="7.079" height="3.321"/>
								</g>
							</g>
						</g>
						<g>
							<g>
								<g>
									<rect x="137.992" y="181.926" style="fill:#FAFAFA;" width="7.079" height="3.321"/>
								</g>
							</g>
						</g>
						<g>
							<g>
								<g>
									<rect x="152.116" y="181.926" style="fill:#FAFAFA;" width="7.079" height="3.321"/>
								</g>
							</g>
						</g>
					</g>
					<g>
						<g>
							<g>
								<g>
									<rect x="123.867" y="190.142" style="fill:#FAFAFA;" width="7.079" height="3.321"/>
								</g>
							</g>
						</g>
						<g>
							<g>
								<g>
									<rect x="137.992" y="190.142" style="fill:#FAFAFA;" width="7.079" height="3.321"/>
								</g>
							</g>
						</g>
						<g>
							<g>
								<g>
									<rect x="152.116" y="190.142" style="fill:#FAFAFA;" width="7.079" height="3.321"/>
								</g>
							</g>
						</g>
					</g>
					<g>
						<g>
							<g>
								<g>
									<rect x="123.867" y="198.359" style="fill:#FAFAFA;" width="7.079" height="3.321"/>
								</g>
							</g>
						</g>
						<g>
							<g>
								<g>
									<rect x="137.992" y="198.359" style="fill:#FAFAFA;" width="7.079" height="3.321"/>
								</g>
							</g>
						</g>
						<g>
							<g>
								<g>
									<rect x="152.116" y="198.359" style="fill:#FAFAFA;" width="7.079" height="3.321"/>
								</g>
							</g>
						</g>
					</g>
					<g>
						<g>
							<g>
								<g>
									<rect x="123.867" y="206.577" style="fill:#FAFAFA;" width="7.079" height="3.321"/>
								</g>
							</g>
						</g>
						<g>
							<g>
								<g>
									<rect x="137.992" y="206.577" style="fill:#FAFAFA;" width="7.079" height="3.321"/>
								</g>
							</g>
						</g>
						<g>
							<g>
								<g>
									<rect x="152.116" y="206.577" style="fill:#FAFAFA;" width="7.079" height="3.321"/>
								</g>
							</g>
						</g>
					</g>
					<g>
						<g>
							<g>
								<g>
									<rect x="123.867" y="214.793" style="fill:#FAFAFA;" width="7.079" height="3.322"/>
								</g>
							</g>
						</g>
						<g>
							<g>
								<g>
									<rect x="137.992" y="214.793" style="fill:#FAFAFA;" width="7.079" height="3.322"/>
								</g>
							</g>
						</g>
						<g>
							<g>
								<g>
									<rect x="152.116" y="214.793" style="fill:#FAFAFA;" width="7.079" height="3.322"/>
								</g>
							</g>
						</g>
					</g>
					<g>
						<g>
							<g>
								<g>
									<rect x="123.867" y="223.01" style="fill:#FAFAFA;" width="7.079" height="3.321"/>
								</g>
							</g>
						</g>
						<g>
							<g>
								<g>
									<rect x="137.992" y="223.01" style="fill:#FAFAFA;" width="7.079" height="3.321"/>
								</g>
							</g>
						</g>
						<g>
							<g>
								<g>
									<rect x="152.116" y="223.01" style="fill:#FAFAFA;" width="7.079" height="3.321"/>
								</g>
							</g>
						</g>
					</g>
					<g>
						<g>
							<g>
								<g>
									<rect x="123.867" y="231.227" style="fill:#FAFAFA;" width="7.079" height="3.321"/>
								</g>
							</g>
						</g>
						<g>
							<g>
								<g>
									<rect x="137.992" y="231.227" style="fill:#FAFAFA;" width="7.079" height="3.321"/>
								</g>
							</g>
						</g>
						<g>
							<g>
								<g>
									<rect x="152.116" y="231.227" style="fill:#FAFAFA;" width="7.079" height="3.321"/>
								</g>
							</g>
						</g>
					</g>
					<g>
						<g>
							<g>
								<g>
									<rect x="123.867" y="239.444" style="fill:#FAFAFA;" width="7.079" height="3.321"/>
								</g>
							</g>
						</g>
						<g>
							<g>
								<g>
									<rect x="137.992" y="239.444" style="fill:#FAFAFA;" width="7.079" height="3.321"/>
								</g>
							</g>
						</g>
						<g>
							<g>
								<g>
									<rect x="152.116" y="239.444" style="fill:#FAFAFA;" width="7.079" height="3.321"/>
								</g>
							</g>
						</g>
					</g>
				</g>
				<g>
					<g>
						<g>
							<g>
								<g>
									<rect x="123.867" y="246.806" style="fill:#FAFAFA;" width="7.079" height="3.322"/>
								</g>
							</g>
						</g>
						<g>
							<g>
								<g>
									<rect x="137.992" y="246.806" style="fill:#FAFAFA;" width="7.079" height="3.322"/>
								</g>
							</g>
						</g>
						<g>
							<g>
								<g>
									<rect x="152.116" y="246.806" style="fill:#FAFAFA;" width="7.079" height="3.322"/>
								</g>
							</g>
						</g>
					</g>
					<g>
						<g>
							<g>
								<g>
									<rect x="123.867" y="255.023" style="fill:#FAFAFA;" width="7.079" height="3.321"/>
								</g>
							</g>
						</g>
						<g>
							<g>
								<g>
									<rect x="137.992" y="255.023" style="fill:#FAFAFA;" width="7.079" height="3.321"/>
								</g>
							</g>
						</g>
						<g>
							<g>
								<g>
									<rect x="152.116" y="255.023" style="fill:#FAFAFA;" width="7.079" height="3.321"/>
								</g>
							</g>
						</g>
					</g>
				</g>
			</g>
			<g>
				<g>
					<g>
						<g>
							<polygon style="fill:#E6E6E6;" points="219.241,173.026 219.241,289.538 170.33,289.538 170.33,173.026 173.931,173.026 
								173.931,169.053 175.589,169.053 175.589,167.891 180.533,167.891 180.533,169.053 185.887,169.053 185.887,167.891 
								190.832,167.891 190.832,169.053 192.375,169.053 192.375,173.026 205.122,173.026 205.122,169.101 216.116,169.101 
								216.116,173.026 							"/>
						</g>
					</g>
				</g>
				<g>
					<g>
						<g>
							<g>
								<g>
									<rect x="177.511" y="182.899" style="fill:#FAFAFA;" width="7.079" height="3.321"/>
								</g>
							</g>
						</g>
						<g>
							<g>
								<g>
									<rect x="191.636" y="182.899" style="fill:#FAFAFA;" width="7.079" height="3.321"/>
								</g>
							</g>
						</g>
						<g>
							<g>
								<g>
									<rect x="205.76" y="182.899" style="fill:#FAFAFA;" width="7.079" height="3.321"/>
								</g>
							</g>
						</g>
					</g>
					<g>
						<g>
							<g>
								<g>
									<rect x="177.511" y="191.116" style="fill:#FAFAFA;" width="7.079" height="3.321"/>
								</g>
							</g>
						</g>
						<g>
							<g>
								<g>
									<rect x="191.636" y="191.116" style="fill:#FAFAFA;" width="7.079" height="3.321"/>
								</g>
							</g>
						</g>
						<g>
							<g>
								<g>
									<rect x="205.76" y="191.116" style="fill:#FAFAFA;" width="7.079" height="3.321"/>
								</g>
							</g>
						</g>
					</g>
					<g>
						<g>
							<g>
								<g>
									<rect x="177.511" y="199.333" style="fill:#FAFAFA;" width="7.079" height="3.322"/>
								</g>
							</g>
						</g>
						<g>
							<g>
								<g>
									<rect x="191.636" y="199.333" style="fill:#FAFAFA;" width="7.079" height="3.322"/>
								</g>
							</g>
						</g>
						<g>
							<g>
								<g>
									<rect x="205.76" y="199.333" style="fill:#FAFAFA;" width="7.079" height="3.322"/>
								</g>
							</g>
						</g>
					</g>
					<g>
						<g>
							<g>
								<g>
									<rect x="177.511" y="207.55" style="fill:#FAFAFA;" width="7.079" height="3.321"/>
								</g>
							</g>
						</g>
						<g>
							<g>
								<g>
									<rect x="191.636" y="207.55" style="fill:#FAFAFA;" width="7.079" height="3.321"/>
								</g>
							</g>
						</g>
						<g>
							<g>
								<g>
									<rect x="205.76" y="207.55" style="fill:#FAFAFA;" width="7.079" height="3.321"/>
								</g>
							</g>
						</g>
					</g>
					<g>
						<g>
							<g>
								<g>
									<rect x="177.511" y="215.767" style="fill:#FAFAFA;" width="7.079" height="3.321"/>
								</g>
							</g>
						</g>
						<g>
							<g>
								<g>
									<rect x="191.636" y="215.767" style="fill:#FAFAFA;" width="7.079" height="3.321"/>
								</g>
							</g>
						</g>
						<g>
							<g>
								<g>
									<rect x="205.76" y="215.767" style="fill:#FAFAFA;" width="7.079" height="3.321"/>
								</g>
							</g>
						</g>
					</g>
					<g>
						<g>
							<g>
								<g>
									<rect x="177.511" y="223.984" style="fill:#FAFAFA;" width="7.079" height="3.321"/>
								</g>
							</g>
						</g>
						<g>
							<g>
								<g>
									<rect x="191.636" y="223.984" style="fill:#FAFAFA;" width="7.079" height="3.321"/>
								</g>
							</g>
						</g>
						<g>
							<g>
								<g>
									<rect x="205.76" y="223.984" style="fill:#FAFAFA;" width="7.079" height="3.321"/>
								</g>
							</g>
						</g>
					</g>
					<g>
						<g>
							<g>
								<g>
									<rect x="177.511" y="232.201" style="fill:#FAFAFA;" width="7.079" height="3.321"/>
								</g>
							</g>
						</g>
						<g>
							<g>
								<g>
									<rect x="191.636" y="232.201" style="fill:#FAFAFA;" width="7.079" height="3.321"/>
								</g>
							</g>
						</g>
						<g>
							<g>
								<g>
									<rect x="205.76" y="232.201" style="fill:#FAFAFA;" width="7.079" height="3.321"/>
								</g>
							</g>
						</g>
					</g>
					<g>
						<g>
							<g>
								<g>
									<rect x="177.511" y="240.418" style="fill:#FAFAFA;" width="7.079" height="3.321"/>
								</g>
							</g>
						</g>
						<g>
							<g>
								<g>
									<rect x="191.636" y="240.418" style="fill:#FAFAFA;" width="7.079" height="3.321"/>
								</g>
							</g>
						</g>
						<g>
							<g>
								<g>
									<rect x="205.76" y="240.418" style="fill:#FAFAFA;" width="7.079" height="3.321"/>
								</g>
							</g>
						</g>
					</g>
					<g>
						<g>
							<g>
								<g>
									<rect x="177.511" y="248.635" style="fill:#FAFAFA;" width="7.079" height="3.321"/>
								</g>
							</g>
						</g>
						<g>
							<g>
								<g>
									<rect x="191.636" y="248.635" style="fill:#FAFAFA;" width="7.079" height="3.321"/>
								</g>
							</g>
						</g>
						<g>
							<g>
								<g>
									<rect x="205.76" y="248.635" style="fill:#FAFAFA;" width="7.079" height="3.321"/>
								</g>
							</g>
						</g>
					</g>
					<g>
						<g>
							<g>
								<g>
									<rect x="177.511" y="256.852" style="fill:#FAFAFA;" width="7.079" height="3.321"/>
								</g>
							</g>
						</g>
						<g>
							<g>
								<g>
									<rect x="191.636" y="256.852" style="fill:#FAFAFA;" width="7.079" height="3.321"/>
								</g>
							</g>
						</g>
						<g>
							<g>
								<g>
									<rect x="205.76" y="256.852" style="fill:#FAFAFA;" width="7.079" height="3.321"/>
								</g>
							</g>
						</g>
					</g>
					<g>
						<g>
							<g>
								<g>
									<rect x="177.511" y="265.069" style="fill:#FAFAFA;" width="7.079" height="3.321"/>
								</g>
							</g>
						</g>
						<g>
							<g>
								<g>
									<rect x="191.636" y="265.069" style="fill:#FAFAFA;" width="7.079" height="3.321"/>
								</g>
							</g>
						</g>
						<g>
							<g>
								<g>
									<rect x="205.76" y="265.069" style="fill:#FAFAFA;" width="7.079" height="3.321"/>
								</g>
							</g>
						</g>
					</g>
					<g>
						<g>
							<g>
								<g>
									<rect x="177.511" y="273.286" style="fill:#FAFAFA;" width="7.079" height="3.321"/>
								</g>
							</g>
						</g>
						<g>
							<g>
								<g>
									<rect x="191.636" y="273.286" style="fill:#FAFAFA;" width="7.079" height="3.321"/>
								</g>
							</g>
						</g>
						<g>
							<g>
								<g>
									<rect x="205.76" y="273.286" style="fill:#FAFAFA;" width="7.079" height="3.321"/>
								</g>
							</g>
						</g>
					</g>
				</g>
			</g>
		</g>
		<g>
			<g>
				<g>
					<g>
						<path style="fill:#F5F5F5;" d="M98.952,317.612h24.59c0.938,0,1.699-0.761,1.699-1.699v-9.202
							c0-0.939-0.761-1.699-1.699-1.699h-24.59c-0.938,0-1.699,0.761-1.699,1.699v9.202
							C97.253,316.851,98.014,317.612,98.952,317.612z"/>
					</g>
				</g>
			</g>
			<g>
				<g>
					<g>
						<path style="fill:#F5F5F5;" d="M69.025,317.612h24.59c0.938,0,1.699-0.761,1.699-1.699v-9.202
							c0-0.939-0.761-1.699-1.699-1.699h-24.59c-0.938,0-1.699,0.761-1.699,1.699v9.202
							C67.326,316.851,68.087,317.612,69.025,317.612z"/>
					</g>
				</g>
			</g>
			<g>
				<g>
					<g>
						<path style="fill:#F5F5F5;" d="M84.958,331.667h24.59c0.938,0,1.699-0.761,1.699-1.699v-9.202
							c0-0.939-0.761-1.699-1.699-1.699h-24.59c-0.938,0-1.699,0.761-1.699,1.699v9.202
							C83.259,330.906,84.019,331.667,84.958,331.667z"/>
					</g>
				</g>
			</g>
		</g>
		<g>
			<g>
				<g>
					<g>
						<path style="fill:#F5F5F5;" d="M402.473,105.057h24.59c0.939,0,1.699-0.761,1.699-1.699v-9.202
							c0-0.938-0.761-1.699-1.699-1.699h-24.59c-0.939,0-1.699,0.761-1.699,1.699v9.202
							C400.773,104.296,401.534,105.057,402.473,105.057z"/>
					</g>
				</g>
			</g>
			<g>
				<g>
					<g>
						<path style="fill:#F5F5F5;" d="M372.545,105.057h24.59c0.939,0,1.699-0.761,1.699-1.699v-9.202
							c0-0.938-0.761-1.699-1.699-1.699h-24.59c-0.938,0-1.699,0.761-1.699,1.699v9.202
							C370.846,104.296,371.607,105.057,372.545,105.057z"/>
					</g>
				</g>
			</g>
			<g>
				<g>
					<g>
						<path style="fill:#F5F5F5;" d="M388.478,119.112h24.59c0.939,0,1.699-0.761,1.699-1.699v-9.202
							c0-0.938-0.761-1.699-1.699-1.699h-24.59c-0.939,0-1.699,0.761-1.699,1.699v9.202
							C386.779,118.351,387.54,119.112,388.478,119.112z"/>
					</g>
				</g>
			</g>
		</g>
		<g>
			<g>
				<g>
					<g>
						<path style="fill:#F5F5F5;" d="M391.139,262.681h24.59c0.939,0,1.699-0.761,1.699-1.699v-9.202
							c0-0.939-0.761-1.699-1.699-1.699h-24.59c-0.939,0-1.699,0.761-1.699,1.699v9.202
							C389.44,261.92,390.201,262.681,391.139,262.681z"/>
					</g>
				</g>
			</g>
			<g>
				<g>
					<g>
						<path style="fill:#F5F5F5;" d="M361.212,262.681h24.59c0.939,0,1.699-0.761,1.699-1.699v-9.202
							c0-0.939-0.761-1.699-1.699-1.699h-24.59c-0.939,0-1.699,0.761-1.699,1.699v9.202
							C359.513,261.92,360.273,262.681,361.212,262.681z"/>
					</g>
				</g>
			</g>
			<g>
				<g>
					<g>
						<path style="fill:#F5F5F5;" d="M377.145,276.736h24.59c0.939,0,1.699-0.761,1.699-1.699v-9.202
							c0-0.939-0.761-1.699-1.699-1.699h-24.59c-0.939,0-1.699,0.761-1.699,1.699v9.202
							C375.445,275.975,376.206,276.736,377.145,276.736z"/>
					</g>
				</g>
			</g>
		</g>
		<g>
			<g>
				<g>
					<g>
						
							<ellipse transform="matrix(0.3806 -0.9247 0.9247 0.3806 94.6842 373.6058)" style="fill:#E0E0E0;" cx="326.228" cy="116.124" rx="27.035" ry="27.034"/>
					</g>
				</g>
			</g>
			<g>
				<g>
					<g>
						
							<ellipse transform="matrix(0.9975 -0.0711 0.0711 0.9975 -7.4345 23.5022)" style="fill:#FAFAFA;" cx="326.228" cy="116.124" rx="24.904" ry="24.904"/>
					</g>
				</g>
			</g>
			<g>
				<g>
					<g>
						<g>
							<rect x="325.362" y="93.484" style="fill:#E0E0E0;" width="0.932" height="5.194"/>
						</g>
					</g>
				</g>
				<g>
					<g>
						<g>
							<rect x="325.362" y="133.437" style="fill:#E0E0E0;" width="0.932" height="5.194"/>
						</g>
					</g>
				</g>
			</g>
			<g>
				<g>
					<g>
						<g>
							<rect x="303.255" y="115.591" style="fill:#E0E0E0;" width="5.194" height="0.932"/>
						</g>
					</g>
				</g>
				<g>
					<g>
						<g>
							<rect x="343.208" y="115.591" style="fill:#E0E0E0;" width="5.194" height="0.932"/>
						</g>
					</g>
				</g>
			</g>
			<g>
				<g>
					<g>
						<g>
							
								<rect x="337.357" y="101.466" transform="matrix(0.707 -0.7072 0.7072 0.707 27.5071 270.2645)" style="fill:#E0E0E0;" width="5.194" height="0.932"/>
						</g>
					</g>
				</g>
				<g>
					<g>
						<g>
							
								<rect x="309.106" y="129.717" transform="matrix(0.7071 -0.7072 0.7072 0.7071 -0.7484 258.5588)" style="fill:#E0E0E0;" width="5.194" height="0.932"/>
						</g>
					</g>
				</g>
			</g>
			<g>
				<g>
					<g>
						<g>
							
								<rect x="311.237" y="99.335" transform="matrix(0.7071 -0.7071 0.7071 0.7071 19.2188 250.2625)" style="fill:#E0E0E0;" width="0.932" height="5.194"/>
						</g>
					</g>
				</g>
				<g>
					<g>
						<g>
							
								<rect x="339.488" y="127.586" transform="matrix(0.7071 -0.7071 0.7071 0.7071 7.517 278.5132)" style="fill:#E0E0E0;" width="0.932" height="5.194"/>
						</g>
					</g>
				</g>
			</g>
			<g>
				<g>
					<g>
						
							<rect x="329.512" y="112.814" transform="matrix(0.3664 -0.9305 0.9305 0.3664 99.6713 381.4557)" style="fill:#E0E0E0;" width="0.799" height="9.464"/>
					</g>
				</g>
			</g>
			<g>
				<g>
					<g>
						<polygon style="fill:#E0E0E0;" points="326.228,116.457 311.703,116.457 311.703,115.658 325.429,115.658 325.429,104.383 
							326.228,104.383 						"/>
					</g>
				</g>
			</g>
		</g>
	</g>
</g>
<g id="Background_Simple" style="display:none;">
	<g style="display:inline;">
		<path style="fill:#407BFF;" d="M273.28,75.185c0,0-114.378-17.865-133.678,42.937c-14.327,45.137,20.458,86.68-32.179,101.409
			C54.786,234.26,57.358,363.662,215.046,322.297c79.51-20.858,31.32-85.912,129.954-83.194
			C458.27,242.224,441.607,110.059,273.28,75.185z"/>
		<path style="opacity:0.9;fill:#FFFFFF;" d="M273.28,75.185c0,0-114.378-17.865-133.678,42.937
			c-14.327,45.137,20.458,86.68-32.179,101.409C54.786,234.26,57.358,363.662,215.046,322.297
			c79.51-20.858,31.32-85.912,129.954-83.194C458.27,242.224,441.607,110.059,273.28,75.185z"/>
	</g>
</g>
<g id="Character">
	<g>
		<g>
			<g>
				<g>
					<g>
						<path style="fill:#FF8B7B;" d="M217.388,227.892l-2.661,0.26l-2.516,0.216c-1.67,0.125-3.332,0.212-4.995,0.295
							c-3.325,0.173-6.654,0.204-9.999,0.216c-6.69-0.051-13.441-0.347-20.358-1.22c-6.94-0.862-13.981-2.137-21.681-4.984
							c-3.854-1.475-7.956-3.339-12.271-6.841c-1.067-0.861-2.155-1.891-3.2-3.018c-0.525-0.581-1.042-1.193-1.542-1.836
							l-0.738-1.011l-0.18-0.255l-0.356-0.532c-0.364-0.565-0.702-1.156-0.968-1.712c-1.116-2.298-1.502-4.368-1.647-5.994
							c-0.137-1.644-0.045-2.932,0.09-4.039c0.292-2.193,0.768-3.68,1.23-5.022c0.941-2.602,1.938-4.49,2.954-6.248
							c1.012-1.741,2.032-3.299,3.059-4.793c2.055-2.972,4.14-5.668,6.252-8.283c2.135-2.593,4.316-5.068,6.504-7.501
							c2.189-2.432,4.395-4.813,6.667-7.118c2.262-2.313,4.527-4.602,6.827-6.848c2.319-2.23,4.651-4.434,6.994-6.618
							c4.757-4.325,9.495-8.557,14.575-12.611l9.697,9.012l-21.072,30.892c-3.395,5.134-6.803,10.213-9.803,15.302
							c-1.531,2.51-2.977,5.022-4.194,7.421c-0.604,1.194-1.152,2.364-1.577,3.419c-0.415,1.04-0.732,2.019-0.771,2.407
							c-0.014,0.154,0.061,0.197,0.183-0.432c0.053-0.326,0.117-0.825,0.057-1.686c-0.068-0.846-0.269-2.139-1.034-3.732
							c-0.186-0.375-0.416-0.803-0.675-1.2l-0.188-0.279l0-0.011l-0.002-0.021c-0.004-0.027-0.012-0.051-0.025-0.072
							c-0.002-0.037,0.003-0.059,0.014-0.066c0.059-0.009,0.124,0.036,0.312,0.123c0.668,0.358,2.373,1.133,4.436,1.739
							c2.083,0.617,4.531,1.132,7.114,1.523c2.593,0.38,5.311,0.737,8.107,0.953c5.594,0.431,11.426,0.644,17.311,0.639
							c2.943,0.032,5.904-0.037,8.863-0.078l4.428-0.113l2.193-0.059l2.044-0.076L217.388,227.892z"/>
					</g>
				</g>
			</g>
			<g>
				<path style="fill:#263238;" d="M189.006,153.803c-1.838,0-3.82-0.962-5.906-2.872c-2.818-2.579-4.216-5.21-4.158-7.822
					c0.073-3.249,2.389-5.22,2.487-5.303c0.213-0.176,0.527-0.147,0.703,0.063c0.177,0.212,0.15,0.526-0.061,0.704
					c-0.02,0.018-2.073,1.78-2.129,4.572c-0.047,2.306,1.243,4.677,3.833,7.048c2.212,2.024,4.233,2.876,6.01,2.535
					c2.286-0.439,3.42-2.736,3.432-2.759c0.121-0.248,0.419-0.352,0.668-0.232c0.249,0.12,0.353,0.419,0.232,0.668
					c-0.055,0.113-1.37,2.773-4.144,3.306C189.655,153.772,189.333,153.803,189.006,153.803z"/>
			</g>
			<g>
				<g>
					<g>
						<g>
							<path style="fill:#407BFF;" d="M221.254,189.892c0,0-11.709,6.487-34.595,4.365c-5.41-0.502-10.425,35.977-8.769,38.979
								c3.885,7.045,37.931,5.649,37.931,5.649S220.59,203.346,221.254,189.892z"/>
						</g>
					</g>
				</g>
				<g style="opacity:0.2;">
					<g>
						<g>
							<path d="M221.254,189.892c0,0-11.709,6.487-34.595,4.365c-5.41-0.502-10.425,35.977-8.769,38.979
								c3.885,7.045,37.931,5.649,37.931,5.649S220.59,203.346,221.254,189.892z"/>
						</g>
					</g>
				</g>
			</g>
			<g>
				<g>
					<g>
						<path style="fill:#263238;" d="M247.026,108.377c0,0-7.666-2.737-11.189,1.871c-3.524,4.608-0.601,12.208-0.601,12.208
							L247.026,108.377z"/>
					</g>
				</g>
			</g>
			<g>
				<g>
					<g>
						<polygon style="fill:#263238;" points="235.105,417.426 242.946,365.93 191.54,347.154 179.737,417.426 						"/>
					</g>
				</g>
			</g>
			<g>
				<g>
					<g>
						<path style="fill:#263238;" d="M300.263,417.426c-0.506-33.492-1.779-52.632,0.181-68.244l-70.204,7.228
							c3.114,19.854,2.706,42.132,6.21,61.016H300.263z"/>
					</g>
				</g>
			</g>
			<g style="opacity:0.2;">
				<g>
					<g>
						<g>
							<path style="fill:#FFFFFF;" d="M290.899,393.428c0.586,0,1.171-0.011,1.778-0.043v24.041h1.084v-52.707h-1.084v27.582
								c-8.414,0.369-14.93-1.8-19.375-6.429c-7.72-8.056-6.57-20.969-6.559-21.099l-1.084-0.108
								c-0.054,0.553-1.203,13.531,6.852,21.944C276.858,391.141,283.028,393.428,290.899,393.428z"/>
						</g>
					</g>
				</g>
			</g>
			<g style="opacity:0.2;">
				<g>
					<g>
						<g>
							<path style="fill:#FFFFFF;" d="M186.675,377.323l-0.228-1.061c12.237-2.628,13.067-21.488,13.074-21.679l1.083,0.04
								C200.575,355.434,199.729,374.518,186.675,377.323z"/>
						</g>
					</g>
				</g>
			</g>
			<g style="opacity:0.2;">
				<g>
					<g>
						<g>
							<path style="fill:#FFFFFF;" d="M241.339,361.585l-7.047,33.491l-1.063-0.217l0.911-4.326
								c-2.147-0.271-3.827-1.312-4.998-3.09c-5.204-7.904,1.128-27.995,1.399-28.851l1.03,0.336
								c-0.065,0.195-6.44,20.448-1.529,27.919c1.03,1.55,2.439,2.418,4.326,2.624l5.909-28.114L241.339,361.585z"/>
						</g>
					</g>
				</g>
			</g>
			<g>
				<g>
					<g>
						<g>
							<path style="fill:#407BFF;" d="M310.405,286.026c-3.57,31.4-5.1,68.44-10.92,74.97c-2.75,3.06-8.93,5.06-17.09,6.13
								c-0.17,0.02-0.34,0.05-0.51,0.07c-34.08,4.29-101.3-7.08-96.73-23.5c1.41-5.1,4.61-22.06,8.11-42.5
								c0.07-0.39,0.13-0.77,0.2-1.16c0.35-2.06,0.7-4.15,1.06-6.27c2.48-14.81,5.03-30.85,7.12-45.24c0.3-2.02,0.58-4.01,0.86-5.96
								c0.05-0.38,0.11-0.76,0.16-1.14c2.39-16.97,3.96-30.72,3.78-35.84c-0.59-16.64,35.64-21.74,35.64-21.74l12.04-0.86
								c0,0,25.56,2.24,40.67,9.91c0.51,0.26,1.02,0.53,1.5,0.81c10.4,5.82,14.85,33.64,15.38,60.29
								C311.925,265.506,311.445,276.816,310.405,286.026z"/>
						</g>
					</g>
				</g>
				<g style="opacity:0.2;">
					<g>
						<g>
							<g>
								<path d="M297.345,292.536c-1.65,20.79-5.77,46.54-14.95,74.59c-0.02,0.07-0.05,0.15-0.07,0.22l-0.44-0.15l-0.5-0.17
									c6.07-18.49,9.93-35.99,12.32-51.72c-5.61,1.85-10.66,2.65-15.44,2.65c-10.83,0-20.31-4.07-32-9.08
									c-4.74-2.04-10.11-4.34-16.03-6.56c-18.67-7-31.6-3.4-36.97-1.12c0.07-0.39,0.13-0.77,0.2-1.16
									c5.87-2.35,18.82-5.52,37.12,1.34c5.95,2.23,11.33,4.54,16.08,6.58c16.79,7.2,28.96,12.43,47.2,6.24
									c0.47-3.13,0.88-6.2,1.24-9.18c-0.1,0.42-0.21,0.84-0.33,1.25c0,0-12.24,8.56-35.58,0c-21.11-7.74-44.18-21.32-64.67-12.5
									c2.48-14.81,5.03-30.85,7.12-45.24c8.02-2.84,23.67-4.93,46.69,7.11c30.15,15.77,45.25,8.14,48.86,5.72
									c-0.05-1.94-0.12-3.75-0.21-5.42c-5.56,1.98-10.52,2.81-15.21,2.81c-10.14,0-19-3.9-29.95-8.72
									c-4.43-1.95-9.45-4.17-14.99-6.3c-17.23-6.63-29.2-3.36-34.33-1.16c0.05-0.38,0.11-0.76,0.16-1.14
									c5.6-2.25,17.63-5.14,34.53,1.37c5.56,2.14,10.6,4.36,15.04,6.31c15.83,6.98,27.27,12.02,44.56,5.84l0.17,0.48
									c-0.43-8.44-1.15-13.23-1.17-13.39l0.99-0.16c0.04,0.22,1.31,8.84,1.49,23.39c0.01,0.04,0.01,0.08,0.01,0.12
									C298.475,271.306,298.575,282.006,297.345,292.536z"/>
							</g>
						</g>
					</g>
				</g>
				<g>
					<g>
						<g>
							<g>
								<path style="fill:#263238;" d="M274.06,154.294c0,0,2.702,8.041,0.719,8.945c-1.984,0.904-3.057-2.168-3.057-2.168
									s-0.372,4.969-3.625,3.885c-3.253-1.084-3.885-7.41-3.885-7.41L274.06,154.294z"/>
							</g>
						</g>
					</g>
					<g>
						<g>
							<g>
								<g>
									<path style="fill:#FF8B7B;" d="M267.543,185.697c-1.285,3.265-11.493,11.599-19.208,13.099
										c-8.113,1.578-11.323-7.09-8.137-12.102c0.564-1.152,1.044-2.365,1.441-3.625c0.612-1.981,0.996-4.081,1.128-6.278
										c0.048-0.708,0.072-1.417,0.048-2.149c-0.012-0.876-0.084-1.753-0.192-2.665c0-0.024-0.012-0.048-0.012-0.072
										c-0.048-0.372-0.072-0.744-0.144-1.128c-0.06-0.276-0.096-0.564-0.156-0.84l-0.636-4.141l4.585-1.873l11.872-4.838
										l10.899-7.466C266.186,161.485,266.379,174.413,267.543,185.697z"/>
								</g>
							</g>
						</g>
					</g>
					<g>
						<g>
							<g>
								<path style="fill:#FFFFFF;" d="M243.485,210.729c-1.092,0-2.213-0.112-3.364-0.351c-3.296-0.684-5.477-2.303-6.48-4.811
									c-3.092-7.73,6.12-21.188,6.513-21.757l0.822,0.569c-0.093,0.135-9.301,13.585-6.407,20.817
									c0.872,2.178,2.808,3.592,5.755,4.203c1.048,0.218,2.075,0.32,3.075,0.32c15.499,0.002,25.064-24.523,25.166-24.787
									l0.934,0.357C269.076,186.394,259.573,210.727,243.485,210.729z"/>
							</g>
						</g>
					</g>
					<g style="opacity:0.2;">
						<g>
							<g>
								<g>
									<path d="M254.612,171.025c-3.433,1.561-8.016,2.056-11.989,0.951c0-0.024-0.012-0.048-0.012-0.072
										c-0.048-0.372-0.072-0.744-0.144-1.128c-0.06-0.276-0.096-0.564-0.156-0.84l-0.636-4.141l4.585-1.873l12.76,1.308
										C259.764,166.551,258.129,169.429,254.612,171.025z"/>
								</g>
							</g>
						</g>
					</g>
					<g>
						<g>
							<g>
								<path style="fill:#FF8B7B;" d="M279.477,138.715c7.301-14.982-2.974-32.828-20.292-32.931
									c-17.577-0.105-29.111,21.847-31.521,37.024c-2.677,16.862,13.387,31.748,29.974,24.709
									C268.664,162.837,272.176,153.697,279.477,138.715"/>
							</g>
						</g>
					</g>
					<g>
						<g>
							<g>
								<path style="fill:#263238;" d="M248.33,104.46c0,0-7.348,0.848-9.982,3.378c-2.633,2.53,0.668,3.524,0.668,3.524
									s-3.585,2.168-3.072,3.772c1.068,3.343,14.492-1.807,14.492-1.807s-5.699,5.421-2.106,6.144s10.785-3.795,10.785-3.795
									s-3.831,8.193,0,8.433c3.831,0.24,6.097-6.626,6.097-6.626s-0.035,8.493,3.819,7.951c3.854-0.542,5.393-2.834,5.393-2.834
									s-9.587,10.379-6.418,14.945c0,0-6.852,5.598-2.794,9.031c4.059,3.433,13.455-2.43,15.443-4.829
									c1.988-2.399,9.397-11.796-1.807-27.697C267.645,98.147,248.33,104.46,248.33,104.46z"/>
							</g>
						</g>
					</g>
					<g>
						<g>
							<g>
								<path style="fill:#407BFF;" d="M253.264,102.111c0,0,4.397-3.693,18.492-0.982c14.095,2.711,19.245,18.42,19.245,18.42
									s7.318,3.688,4.743,11.811c-2.575,8.123-7.319,6.768-7.319,6.768s-2.846,4.387-7.589,1.719
									C280.836,139.847,284.781,113.063,253.264,102.111z"/>
							</g>
						</g>
					</g>
					<g style="opacity:0.1;">
						<g>
							<g>
								<path style="fill:#FFFFFF;" d="M253.264,102.111c0,0,4.397-3.693,18.492-0.982c14.095,2.711,19.245,18.42,19.245,18.42
									s7.318,3.688,4.743,11.811c-2.575,8.123-7.319,6.768-7.319,6.768s-2.846,4.387-7.589,1.719
									C280.836,139.847,284.781,113.063,253.264,102.111z"/>
							</g>
						</g>
					</g>
					<g>
						<g>
							<g>
								<path style="fill:#407BFF;" d="M243.252,105.484c0,0,22.134,4.975,29.995,17.115c7.861,12.14,4.879,20.001,4.879,20.001
									s7.318-0.485,7.59-7.629c0.271-7.144-7.522-25.033-22.904-30.793C248.522,98.828,243.252,105.484,243.252,105.484z"/>
							</g>
						</g>
					</g>
					<g style="opacity:0.1;">
						<g>
							<g>
								<path d="M243.252,105.484c0,0,22.134,4.975,29.995,17.115c7.861,12.14,4.879,20.001,4.879,20.001s7.318-0.485,7.59-7.629
									c0.271-7.144-7.522-25.033-22.904-30.793C248.522,98.828,243.252,105.484,243.252,105.484z"/>
							</g>
						</g>
					</g>
					<g>
						<g>
							<g>
								<path style="fill:#FF5652;" d="M245.223,132.052c0,0-2.781,2.612-6.566,3.245c-3.785,0.633-4.124,2.597-2.557,4.648
									c1.297,1.697,2.846,1.801,2.846,1.801C241.366,139.626,243.363,136.071,245.223,132.052z"/>
							</g>
						</g>
					</g>
					<g>
						<g>
							<g>
								<path style="fill:#263238;" d="M237.995,132.775c-0.413,0-0.849-0.089-1.295-0.313c-2.146-1.074-1.98-3.131-1.973-3.219
									c0.025-0.275,0.274-0.481,0.544-0.452c0.274,0.026,0.476,0.268,0.452,0.542c-0.005,0.069-0.091,1.476,1.424,2.234
									c1.509,0.758,3.01-0.869,3.025-0.886c0.186-0.205,0.501-0.218,0.706-0.034c0.204,0.186,0.219,0.502,0.034,0.707
									C240.847,131.427,239.599,132.775,237.995,132.775z"/>
							</g>
						</g>
					</g>
					<g>
						<g>
							<g>
								<path style="fill:#263238;" d="M251.816,138.19c-0.616,0-1.269-0.159-1.896-0.582c-2.183-1.474-1.862-3.537-1.847-3.624
									c0.046-0.273,0.302-0.452,0.577-0.41c0.271,0.046,0.454,0.303,0.41,0.574c-0.012,0.076-0.204,1.535,1.42,2.631
									c1.6,1.081,3.301-0.269,3.372-0.327c0.216-0.173,0.529-0.141,0.703,0.072c0.174,0.213,0.143,0.527-0.069,0.702
									C253.968,137.652,252.952,138.19,251.816,138.19z"/>
							</g>
						</g>
					</g>
					<g>
						<g>
							<g>
								<path style="fill:#FFFFFF;" d="M239.663,148.647c-0.688,1.785-2.432,2.775-3.895,2.211
									c-1.464-0.564-2.093-2.468-1.405-4.253c0.688-1.785,2.431-2.775,3.895-2.211
									C239.721,144.958,240.35,146.862,239.663,148.647z"/>
							</g>
						</g>
					</g>
					<g>
						<g>
							<g>
								<g>
									<path style="fill:#FF8B7B;" d="M281.834,151.695c-2.786,3.526-6.94,5.438-10.614,5.809
										c-5.527,0.559-7.345-4.613-5.017-9.334c2.095-4.249,7.496-9.66,12.662-8.025
										C283.955,141.757,285.019,147.663,281.834,151.695"/>
								</g>
							</g>
						</g>
					</g>
					<path style="fill:#FFFFFF;" d="M270.939,156.25c0,1.255-1.017,2.272-2.272,2.272c-1.255,0-2.272-1.017-2.272-2.272
						s1.017-2.272,2.272-2.272C269.922,153.978,270.939,154.995,270.939,156.25z"/>
					<g>
						<g>
							<g>
								<g>
									<path style="fill:#263238;" d="M237.048,123.391c0.214,0.088,0.467,0.061,0.66-0.092c0.869-0.683,1.737-0.973,2.58-0.861
										c1.386,0.184,2.321,1.392,2.33,1.406c0.212,0.287,0.631,0.355,0.925,0.134c0.293-0.219,0.353-0.633,0.135-0.926
										c-0.049-0.067-1.265-1.668-3.215-1.925c-1.21-0.161-2.411,0.221-3.57,1.133c-0.288,0.225-0.338,0.641-0.112,0.929
										C236.853,123.281,236.946,123.349,237.048,123.391z"/>
								</g>
							</g>
						</g>
					</g>
					<g>
						<g>
							<g>
								<g>
									<path style="fill:#263238;" d="M258.204,132.64c0.09,0.037,0.19,0.054,0.294,0.047c0.364-0.024,0.64-0.336,0.617-0.699
										c-0.005-0.085-0.146-2.087-1.637-3.371c-0.924-0.796-2.139-1.135-3.609-1.005c-0.365,0.032-0.634,0.352-0.602,0.717
										c0.032,0.365,0.354,0.634,0.717,0.601c1.097-0.096,1.98,0.132,2.623,0.684c1.068,0.913,1.186,2.444,1.187,2.459
										C257.811,132.331,257.977,132.547,258.204,132.64z"/>
								</g>
							</g>
						</g>
					</g>
				</g>
			</g>
			<g>
				<g>
					<g>
						<path style="fill:#FF8B7B;" d="M368.888,260.813c-0.361-0.811-0.789-1.602-1.275-2.366l-0.431-0.684l-0.85-1.339
							c-0.561-0.907-1.161-1.758-1.765-2.596c-1.19-1.72-2.451-3.308-3.711-4.915c-2.549-3.145-5.218-6.074-7.95-8.88
							c-5.534-5.516-11.307-10.511-17.305-15.06c-2.995-2.285-6.03-4.468-9.105-6.578c-3.088-2.088-6.204-4.11-9.356-6.06
							c-3.17-1.922-6.361-3.796-9.613-5.58c-1.631-0.885-3.267-1.761-4.928-2.621l-2.526-1.258l-2.702-1.299l-13.097,26.99
							l2.004,1.078l2.145,1.187c1.445,0.786,2.892,1.6,4.333,2.421c2.889,1.638,5.771,3.307,8.611,5.034
							c2.859,1.696,5.674,3.45,8.444,5.249c2.778,1.785,5.537,3.586,8.203,5.47c2.658,1.892,5.315,3.772,7.853,5.734
							c2.536,1.961,5.012,3.971,7.348,6.04c2.348,2.052,4.598,4.154,6.665,6.313c0.997,1.088,2.025,2.17,2.926,3.278
							c0.075,0.086,0.138,0.173,0.212,0.26c-1.012,2.043-2.519,4.417-4.131,6.779c-3.572,5.168-7.89,10.365-12.287,15.526
							c-5.986,6.924-12.325,13.796-18.741,20.598c-0.006,0.051-0.005,0.1-0.017,0.153c-1.434,6.842-1.41,13.527-0.56,20.308
							l0.683,0.829c6.074-4.027,11.794-8.22,17.525-12.589c5.685-4.393,11.3-8.919,16.758-13.76
							c5.493-4.827,10.813-9.9,15.996-15.739c2.6-2.953,5.125-6.069,7.568-10.049c1.212-2.028,2.437-4.241,3.477-7.351
							c0.505-1.569,0.978-3.403,1.134-5.779C370.564,267.207,370.34,264.091,368.888,260.813z M344.049,267.835
							c0.013,0.136-0.068,0.473-0.217,0.91c0.005-0.115,0.013-0.22,0.023-0.306C343.93,267.821,344.045,267.72,344.049,267.835z"/>
					</g>
				</g>
			</g>
			<g>
				<g>
					<g>
						<path style="fill:#407BFF;" d="M279.21,231.71l39.574,25.855c0,0,18.703-20.476,17.076-38.698c0,0-22.47-21.265-39.56-25.165
							C279.21,189.802,261.189,218.641,279.21,231.71z"/>
					</g>
				</g>
			</g>
			<g style="opacity:0.2;">
				<g>
					<g>
						<path d="M279.21,231.71l39.574,25.855c0,0,18.703-20.476,17.076-38.698c0,0-22.47-21.265-39.56-25.165
							C279.21,189.802,261.189,218.641,279.21,231.71z"/>
					</g>
				</g>
			</g>
			<g>
				<g>
					<g>
						<g>
							<g>
								<path style="fill:#407BFF;" d="M165.085,128.605c-7.251-3.577,6.945-32.355,14.196-28.778c0,0,6.905,2.901,13.402,6.611
									c6.494,3.699,8.825,14.038,12.852,16.529c4.027,2.474,10.235-1.416,15.249,0.309c2.972,1.031,6.65,6.082,9.149,10.012
									c1.264,1.99,1.744,4.332,1.439,6.609l3.849,1.899l-2.789,5.655l-3.849-1.899c-0.441,0.435-0.913,0.829-1.418,1.18
									c-1.37,0.943-2.979,1.541-4.699,1.694c-4.643,0.416-10.889,0.572-13.513-1.166c-4.42-2.929-5.112-10.223-9.529-11.905
									c-4.424-1.686-14.046,2.756-20.937-0.139C171.593,132.311,165.085,128.605,165.085,128.605z"/>
							</g>
						</g>
					</g>
				</g>
				<g style="opacity:0.5;">
					<g>
						<g>
							<g>
								<path style="fill:#FFFFFF;" d="M165.085,128.605c-7.251-3.577,6.945-32.355,14.196-28.778c0,0,6.905,2.901,13.402,6.611
									c6.494,3.699,8.825,14.038,12.852,16.529c4.027,2.474,10.235-1.416,15.249,0.309c2.972,1.031,6.65,6.082,9.149,10.012
									c1.264,1.99,1.744,4.332,1.439,6.609l3.849,1.899l-2.789,5.655l-3.849-1.899c-0.441,0.435-0.913,0.829-1.418,1.18
									c-1.37,0.943-2.979,1.541-4.699,1.694c-4.643,0.416-10.889,0.572-13.513-1.166c-4.42-2.929-5.112-10.223-9.529-11.905
									c-4.424-1.686-14.046,2.756-20.937-0.139C171.593,132.311,165.085,128.605,165.085,128.605z"/>
							</g>
						</g>
					</g>
					<g style="opacity:0.1;">
						<g>
							<g>
								<path d="M227.297,134.963c-3.682-5.801-6.365-8.335-7.526-8.733c-1.629-0.56-3.781-0.203-6.051,0.183
									c-1.451,0.242-2.988,0.501-4.531,0.523c-1.804,0.024-3.614-0.277-5.294-1.315c-2.448-1.512-4.107-4.497-5.87-7.664
									c-1.864-3.347-3.982-7.15-6.888-8.81c-4.767-2.717-9.819-5.017-11.979-5.971c-4.643,3.642-7.89,8.436-9.864,14.074
									c-0.953,2.724-1.859,5.837-2.143,8.934c1.637,0.906,6.995,3.819,12.546,6.156c3.085,1.296,7.385,0.658,11.176,0.1
									c3.585-0.529,6.974-1.032,9.66-0.003c3.42,1.304,5.116,4.499,6.611,7.307c1.082,2.039,2.101,3.96,3.537,4.912
									c1.037,0.685,4.673,1.27,11.51,0.657c0.684-0.063,1.356-0.227,1.986-0.499c0.157-0.053,0.303-0.12,0.446-0.198l3.597-7.292
									C228.066,136.491,227.758,135.687,227.297,134.963z"/>
							</g>
						</g>
					</g>
				</g>
				<g>
					<g>
						<g>
							<path style="fill:#407BFF;" d="M222.429,142.751c-2.342-5.184-11.118-2.044-11.05-8.109c0.001-0.106-0.19-1.899-2.487-4.047
								c-1.258-1.176-2.772-2.059-4.399-2.624c-12.09-4.193-14.651-18.769-27.297-23.116c-3.609,3.391-6.217,7.585-7.901,12.394
								c-0.953,2.724-1.859,5.837-2.143,8.934c1.637,0.906,6.995,3.819,12.546,6.156c3.085,1.296,7.385,0.658,11.175,0.1
								c3.585-0.529,6.974-1.032,9.66-0.003c3.42,1.304,5.116,4.499,6.611,7.307c1.082,2.039,2.101,3.96,3.537,4.912
								c1.037,0.685,4.673,1.27,11.51,0.657c0.684-0.063,1.356-0.227,1.986-0.499C223.453,144.327,222.845,143.67,222.429,142.751z"
								/>
						</g>
					</g>
				</g>
			</g>
			<g>
				<g>
					<g>
						<path style="fill:#407BFF;" d="M212.269,137.696c0,0,3.695,1.78,8.483,1.057c4.789-0.723,4.018,2.733,6.911,4.055
							c2.892,1.321,5.208,0.685,5.953,2.241c1.906,2.648,3.072,4.825,2.151,5.809c-2.777-0.644-7.406-5.645-9.142-5.509
							c-2.704,0.211-2.234,0.079-5.047,0.017C218.765,145.304,212.269,137.696,212.269,137.696z"/>
					</g>
				</g>
			</g>
		</g>
		<g>
			<g>
				<g>
					<path style="fill:#FF8B7B;" d="M199.128,141.406c0,0,9.148,2.312,11.144-0.698c1.997-3.011-1.5-4.156-3.375-5.906
						s-7.75-5.625-8.75-3.5s2.295,4.581,2.295,4.581s-4.545-2.169-9.045,0C186.897,138.051,199.128,141.406,199.128,141.406z"/>
				</g>
			</g>
		</g>
		<g>
			<path style="fill:#FF8B7B;" d="M303.2,325.858c0,0-9.482,3.548-10.113,6.086c-0.631,2.537,9.453,0.32,9.453,0.32
				s-5.546,2.239-6.365,4.146c-0.819,1.907,6.895,1.014,6.895,1.014s-3.644,1.648-2.902,3.711c0.742,2.063,2.45,2.176,4.697,1.777
				c2.247-0.399,3.898-2.085,4.349-3.238c0.451-1.153-1.134-2.901-1.134-2.901s2.724-3.251,2.268-4.637
				c-0.456-1.386-1.803-1.859-1.803-1.859s1.53-0.985,1.422-2.838c-0.108-1.853-1.306-2.48-1.306-2.48s0.092-3.581-0.223-5.505
				c-0.315-1.924-3.974-1.951-6.302-2.221c-2.328-0.27-3.998,4.991-6.758,7.011c0,0-1.14,1.637,1.043,2.07
				c2.182,0.433,4.985-2.884,5.791-3.158C303.02,322.882,303.2,325.858,303.2,325.858z"/>
		</g>
		<g style="opacity:0.2;">
			<path d="M310.62,333.16c-0.017,0-0.034-0.002-0.052-0.006c-0.136-0.028-0.222-0.161-0.192-0.296
				c0.383-1.799-1.425-2.784-1.442-2.794c-0.077-0.041-0.127-0.118-0.132-0.205c-0.006-0.087,0.034-0.17,0.104-0.22
				c0.015-0.011,1.479-1.06,1.479-2.233c0-1.771-1.563-2.451-1.579-2.458c-0.074-0.031-0.128-0.097-0.146-0.175
				c-0.018-0.079,0.004-0.161,0.057-0.222c0.007-0.007,0.752-0.902,0.52-3.012c-0.235-2.129-1.973-3.333-1.99-3.345
				c-0.114-0.078-0.144-0.233-0.066-0.348c0.078-0.115,0.234-0.145,0.348-0.066c0.079,0.054,1.946,1.348,2.205,3.704
				c0.189,1.708-0.216,2.706-0.465,3.14c0.521,0.307,1.618,1.146,1.618,2.781c0,1.082-0.925,2.009-1.407,2.418
				c0.58,0.42,1.737,1.489,1.386,3.138C310.84,333.08,310.736,333.16,310.62,333.16z"/>
		</g>
		<g>
			<path style="fill:#FF8B7B;" d="M207.223,123.636c0,0-6.022,5.423-8.556,4.781c-2.535-0.642,3.54-8.348,3.54-8.348
				s-4.592,3.832-6.66,3.653c-2.068-0.179,2.362-6.557,2.362-6.557s-3.104,3.78-4.572,2.151c-1.468-1.629,0.167-4.274,1.58-6.066
				c1.413-1.792,2.681-2.711,3.91-2.564c1.229,0.146,2.022,2.37,2.022,2.37s4.152-0.866,5.159,0.19
				c1.006,1.056,0.788,2.467,0.788,2.467s1.591-0.883,3.173,0.087c1.582,0.97,0.901,3.367,0.901,3.367s3.214-0.417,4.214,1.923
				c0.766,1.793-1.953,2.814-2.814,4.993c-0.862,2.179-3.29,2.606-6.373,4.085c0,0-1.981,0.232-1.332-1.896
				c0.649-2.128,3.398-3.317,4.02-3.899C209.205,123.792,207.223,123.636,207.223,123.636z"/>
		</g>
	</g>
</g>
<g id="Table">
	<g>
		<g>
			<g>
				<path style="fill:#E0E0E0;" d="M453.455,429.426H45.212c-4.197,0-7.599-3.402-7.599-7.599v-0.247
					c0-4.197,3.402-7.599,7.599-7.599h408.243c4.197,0,7.599,3.402,7.599,7.599v0.247
					C461.054,426.024,457.652,429.426,453.455,429.426z"/>
			</g>
		</g>
		<g>
			<g>
				<path style="fill:#EBEBEB;" d="M440.724,438.426H61.441c-4.971,0-9-4.029-9-9l0,0h397.283l0,0
					C449.724,434.396,445.694,438.426,440.724,438.426z"/>
			</g>
		</g>
	</g>
</g>
<g id="Circles">
	<g>
		<g>
			<g>
				<g>
					<g>
						<path style="fill:#407BFF;" d="M168.725,322.859c-3.526,0-6.396-2.869-6.396-6.396c0-3.526,2.869-6.395,6.396-6.395
							c3.526,0,6.395,2.869,6.395,6.395C175.12,319.99,172.251,322.859,168.725,322.859z M168.725,310.819
							c-3.113,0-5.646,2.532-5.646,5.645s2.532,5.646,5.646,5.646c3.113,0,5.645-2.533,5.645-5.646S171.838,310.819,168.725,310.819
							z"/>
					</g>
				</g>
			</g>
			<g style="opacity:0.5;">
				<g>
					<g>
						<path style="fill:#FFFFFF;" d="M168.725,322.859c-3.526,0-6.396-2.869-6.396-6.396c0-3.526,2.869-6.395,6.396-6.395
							c3.526,0,6.395,2.869,6.395,6.395C175.12,319.99,172.251,322.859,168.725,322.859z M168.725,310.819
							c-3.113,0-5.646,2.532-5.646,5.645s2.532,5.646,5.646,5.646c3.113,0,5.645-2.533,5.645-5.646S171.838,310.819,168.725,310.819
							z"/>
					</g>
				</g>
			</g>
		</g>
		<g>
			<g>
				<g>
					<g>
						<path style="fill:#407BFF;" d="M303.841,174.643c-3.526,0-6.396-2.869-6.396-6.395c0-3.526,2.869-6.395,6.396-6.395
							c3.526,0,6.396,2.869,6.396,6.395C310.236,171.773,307.367,174.643,303.841,174.643z M303.841,162.602
							c-3.113,0-5.646,2.532-5.646,5.645c0,3.113,2.532,5.645,5.646,5.645c3.113,0,5.646-2.533,5.646-5.645
							C309.486,165.134,306.954,162.602,303.841,162.602z"/>
					</g>
				</g>
			</g>
			<g style="opacity:0.5;">
				<g>
					<g>
						<path style="fill:#FFFFFF;" d="M303.841,174.643c-3.526,0-6.396-2.869-6.396-6.395c0-3.526,2.869-6.395,6.396-6.395
							c3.526,0,6.396,2.869,6.396,6.395C310.236,171.773,307.367,174.643,303.841,174.643z M303.841,162.602
							c-3.113,0-5.646,2.532-5.646,5.645c0,3.113,2.532,5.645,5.646,5.645c3.113,0,5.646-2.533,5.646-5.645
							C309.486,165.134,306.954,162.602,303.841,162.602z"/>
					</g>
				</g>
			</g>
		</g>
	</g>
</g>
<g id="Plant">
	<g>
		<g>
			<g>
				<g>
					<g>
						<g>
							<path style="fill:#407BFF;" d="M382.043,400.007l1.212,10.219v0.002l0.078,0.663l0,0c0.228,1.923,1.859,3.371,3.795,3.371
								h25.517c1.942,0,3.575-1.456,3.797-3.385l0.097-0.84l0.087-0.754l0.303-2.633l0.093-0.797l0.059-0.521l0.078-0.678
								l0.701-6.086l0.076-0.665l1.385-12.035v-0.002l0.081-0.693l0.648-5.625c0-1.991-40.436-1.991-40.436,0l0.475,3.997
								l0.076,0.648l0.871,7.336l0.076,0.635l0.568,4.788l0.081,0.686l0.212,1.784L382.043,400.007z"/>
						</g>
					</g>
				</g>
			</g>
			<g>
				<g>
					<g>
						<g>
							<path style="fill:#263238;" d="M418.042,380.317c0,0.526-8.258,0.953-18.446,0.953c-10.187,0-18.446-0.427-18.446-0.953
								c0-0.527,8.258-0.953,18.446-0.953C409.784,379.364,418.042,379.79,418.042,380.317z"/>
						</g>
					</g>
				</g>
			</g>
			<g>
				<g>
					<g>
						<g>
							<g>
								<g>
									<path style="fill:#407BFF;" d="M400.823,364.769c0,0-5.671,0.889-13.304-8.195l5.171,0.473l-7.505-3.54
										c-7.889-11.84-6.288-32.213-6.288-32.213s5.811,4.847,11.223,12.713l1.345,7.302l0.699-4.137
										C396.317,344.031,401.334,355.296,400.823,364.769z"/>
								</g>
							</g>
						</g>
					</g>
				</g>
				<g>
					<g>
						<g>
							<g>
								<g>
									<path style="fill:#407BFF;" d="M400.09,342.893c0,0,5.724-0.431,11.079-11.018l-4.926,1.642l6.498-5.161
										c4.975-13.329-1.24-32.797-1.24-32.797s-4.549,6.046-8.021,14.941l0.359,7.416l-1.626-3.868
										C399.738,321.674,397.428,333.787,400.09,342.893z"/>
								</g>
							</g>
						</g>
					</g>
				</g>
				<g>
					<g>
						<g>
							<g>
								<g>
									<path style="fill:#407BFF;" d="M400.29,374.413c0,0,5.572,1.381,13.969-7.002l-5.193,0.019l7.786-2.871
										c8.893-11.106,9.076-31.54,9.076-31.54s-6.212,4.321-12.291,11.684l-1.978,7.157l-0.335-4.183
										C406.589,354.148,400.608,364.931,400.29,374.413z"/>
								</g>
							</g>
						</g>
					</g>
				</g>
			</g>
		</g>
		<g style="opacity:0.5;">
			<g>
				<g>
					<g>
						<g>
							<path style="fill:#FFFFFF;" d="M400.823,364.769c0,0-5.671,0.889-13.304-8.195l5.171,0.473l-7.505-3.54
								c-7.889-11.84-6.288-32.213-6.288-32.213s5.811,4.847,11.223,12.713l1.345,7.302l0.699-4.137
								C396.317,344.031,401.334,355.296,400.823,364.769z"/>
						</g>
					</g>
				</g>
			</g>
		</g>
		<g style="opacity:0.5;">
			<g>
				<g>
					<g>
						<g>
							<path style="fill:#FFFFFF;" d="M400.09,342.893c0,0,5.724-0.431,11.079-11.018l-4.926,1.642l6.498-5.161
								c4.975-13.329-1.24-32.797-1.24-32.797s-4.549,6.046-8.021,14.941l0.359,7.416l-1.626-3.868
								C399.738,321.674,397.428,333.787,400.09,342.893z"/>
						</g>
					</g>
				</g>
			</g>
		</g>
		<g style="opacity:0.5;">
			<g>
				<g>
					<g>
						<g>
							<path style="fill:#FFFFFF;" d="M400.29,374.413c0,0,5.572,1.381,13.969-7.002l-5.193,0.019l7.786-2.871
								c8.893-11.106,9.076-31.54,9.076-31.54s-6.212,4.321-12.291,11.684l-1.978,7.157l-0.335-4.183
								C406.589,354.148,400.608,364.931,400.29,374.413z"/>
						</g>
					</g>
				</g>
			</g>
		</g>
		<g>
			<g>
				<g>
					<g>
						<g>
							<path style="fill:#407BFF;" d="M398.822,380.512h1.668c2.697-19.169,1.013-35.416-0.923-45.806
								c-2.176-11.675-5.05-18.503-5.171-18.788c-0.179-0.42-0.664-0.615-1.083-0.437c-0.42,0.179-0.615,0.664-0.437,1.083
								c0.029,0.068,2.924,6.946,5.067,18.444C399.863,345.319,401.534,361.463,398.822,380.512z"/>
						</g>
					</g>
				</g>
			</g>
		</g>
	</g>
</g>
<g id="Lamp">
	<g>
		<g>
			<g>
				<path style="fill:#407BFF;" d="M93.687,414.092h34.181c2.471,0,4.858-1.052,6.42-2.966c4.564-5.594,7.174-12.846,6.776-20.717
					c-0.767-15.19-12.967-27.637-28.141-28.68c-17.718-1.219-32.47,12.794-32.47,30.251c0,7.269,2.561,13.937,6.827,19.159
					C88.839,413.048,91.222,414.092,93.687,414.092z"/>
			</g>
		</g>
		<g>
			<g>
				<g>
					<polygon style="fill:#407BFF;" points="145.12,377.45 76.437,377.45 92.606,337.905 128.951,337.905 					"/>
				</g>
			</g>
			<g style="opacity:0.3;">
				<g>
					<polygon style="fill:#FFFFFF;" points="145.12,377.45 76.437,377.45 92.606,337.905 128.951,337.905 					"/>
				</g>
			</g>
		</g>
	</g>
</g>
</svg>
